<?xml version="1.0" encoding="UTF-8"?>
<svg id="a" xmlns="http://www.w3.org/2000/svg" viewBox="0 0 1086.32 283.57">
  <g>
    <path d="M86.38,93.81c-3.41-3.84-5.15-8.8-4.9-14.16.09-1.91.44-3.8.99-5.6l-8.38-25.22c-40.02,28.58-58.62,80.88-42.31,130,2.56,7.71,5.86,14.97,9.8,21.72l28.44-30.53,2.12-2.28c-.25-.69-.52-1.37-.75-2.08-8.57-25.8-1.95-52.96,14.98-71.86Z" fill="#a1a1a1"/>
    <path d="M235.37,192.28c-8.87-5.29-13.04-19.27-13.07-27.06l-.14-36.57-3.73-.08c.23,1.5.37,2.99.37,4.45l.24,57.49c0,1.6-.62,3.13-1.75,4.26-1.13,1.13-2.65,1.76-4.25,1.76h-.02l-22.83-.06c-7.38,6.78-16.26,12.16-26.39,15.53-13.85,4.6-28.09,4.81-41.24,1.41l-2.28,2.44-28.6,30.7c25.87,12.28,56.33,14.99,85.66,5.25,29.52-9.81,52.41-30.41,65.75-55.97-2.72-.93-5.3-2.1-7.73-3.55Z" fill="#a1a1a1"/>
    <path d="M152.96,70.56c20.21,3.44,38.45,15.32,49.64,33.08,1.79,1.2,3.47,2.56,5.02,4.05.56.54,1.1,1.11,1.63,1.7l-.02-5.51c0-3.29,2.64-5.98,5.93-6.02l7.01-.08-.07-15.29c0-1.6.62-3.13,1.75-4.26,1.13-1.13,2.65-1.76,4.25-1.76h7.27c-21.98-31.4-58.46-49.88-96.75-49.07l13.31,40.08,1.03,3.09Z" fill="#a1a1a1"/>
    <path d="M71.69,41.61l-6.06-18.25C12.11,57.17-13.63,124.21,7.23,186.99c3.99,12,9.44,23.1,16.08,33.18l13.09-14.05c-4.68-7.71-8.57-16.06-11.54-24.99-17.6-52.97,3.01-109.44,46.83-139.52Z" fill="#a1a1a1"/>
    <path d="M244.17,76.49l10.7.02c3.29,0,5.97,2.67,5.99,5.96l.09,15.29,13.82.03C253.82,35.18,193.18-3.01,130.16,1.92l6.06,18.25c43.21-1.72,84.56,19.74,107.95,56.33Z" fill="#a1a1a1"/>
    <path d="M273.05,151.38c-.21-6.49,0-14.65,2.95-22.74h-13.29c1.34,11.64.97,23.23-.95,34.45.98,1.25,2.62,1.54,3.49,1.6,2.96.2,6.19-.67,9.54-1.74-1-3.71-1.61-7.58-1.73-11.56Z" fill="#a1a1a1"/>
    <path d="M258.86,198.31c-2.94,0-5.76-.24-8.49-.69-14.06,27.9-38.74,50.47-70.73,61.09-31.97,10.62-65.21,7.32-93.16-6.59l-13.13,14.09c33.15,18.13,73.46,22.98,112.15,10.13,40.18-13.35,70.33-43.03,85.55-79.22-4.22.78-8.29,1.18-12.18,1.18Z" fill="#a1a1a1"/>
    <path d="M123.03,2.65l-29.95-2.65-21.3,19.68,15.38,46.29c.35-.34.7-.67,1.07-.97,8.06-6.46,20.58-6.64,28.51-.43,2.5,1.96,4.39,4.49,5.63,7.34,7.65-1.99,15.38-2.7,22.92-2.23L123.03,2.65Z" fill="#414141"/>
    <path d="M89.22,196.59c-1.59,0-3.12-.63-4.24-1.76s-1.76-2.65-1.76-4.24v-2.92c-3.09-3.95-5.81-8.24-8.08-12.87l-47.76,51.26,11.03,26.74,28.72,9.83,48.03-51.55c-8.71-3.26-16.76-8.18-23.68-14.48h-2.27Z" fill="#414141"/>
    <circle cx="49.34" cy="127.12" r="11.13" fill="#414141"/>
    <circle cx="171.57" cy="234.4" r="11.13" fill="#414141"/>
    <circle cx="206.95" cy="74.76" r="11.13" fill="#414141"/>
  </g>
  <g>
    <path d="M1086.16,103.79l.16,86.68-25.95.05-.55-11.29c-9.74,15.34-32.3,15.78-46.19,8.82-10.37-5.19-13.37-14.91-15.39-25.63l.03-58.58,26.85-.06.1,52.98c.01,7.66,5.47,13.12,12.7,13.53,11.56.66,19.98-5.2,21.48-17.13l-.1-49.36h26.86Z" fill="#ea0005"/>
    <rect x="895.36" y="168.75" width="21.71" height="21.71" fill="#a1a1a1"/>
    <path d="M560.19,191.07c-17.24,2.35-35.19-.37-47.09-13.65-7.49-8.35-9.67-18.61-10.09-29.55-.92-23.91,16.18-43.37,40.24-44.56,3.53-.18,6.96-.12,10.74-.05,26.54.49,45.69,20.65,43.77,47.36-1.52,21.12-16.08,37.53-37.57,40.45ZM554.15,171.91c7.17-1.35,11.62-5.96,13.7-12.61,3.93-12.55,2.35-33.72-14.3-36.73-9.36-1.69-18.04,2.72-20.93,12.07-2.59,8.36-2.66,17.7.35,26.09,3.1,8.65,12.2,12.86,21.18,11.18Z" fill="#a1a1a1"/>
    <path d="M356.67,165.22l4.09,8.96c1.15,2.52,2.58,5.32,2.75,8.07-8.83,8.25-31.01,11.19-41.53,9.8-6.81-.9-13.47-2.27-19.53-5.19-13.85-6.67-21.92-20.49-22.41-35.71-.27-8.44.43-16.56,4.17-23.94,7.29-14.37,17.79-21.38,33.81-23.8,4.31-.65,8.44-.98,12.83-.21,5.29.93,10.48,1.71,15.5,4.06,6.93,3.24,12.93,8.76,16.73,15.54,2.63,4.68,4.63,10.36,4.73,15.7l.33,17.51-62.59.06c2.1,12.82,15.78,17.07,26.76,16.28,4.52-.33,9.61-.82,13.71-2.58l10.64-4.56ZM343.26,139.43c-.51-5.45-.97-10.87-5.07-14.42-7.05-6.11-18.45-6.3-25.7-.52-4.54,3.62-6.28,9.06-6.87,14.94h37.65Z" fill="#ea0005"/>
    <path d="M695.82,162.38c-8.55,28.26-41.33,34.76-65.55,25.74-26.75-9.96-33.14-42.91-19.65-65.63,7.14-12.02,20.9-18.2,34.46-19.15,10.59-.73,21.39.07,30.83,5.13,8.66,4.64,15.79,11.18,19.29,20.69,3.9,10.6,3.91,22.31.62,33.21ZM663.29,168.38c9.52-7.29,8.63-24.4,5.69-33.31s-11.14-14.04-20.13-12.81c-6.97.95-12.04,4.81-14.58,11.52-3.67,9.7-3.74,27.56,4.77,34.39,6.81,5.46,17.28,5.54,24.24.21Z" fill="#a1a1a1"/>
    <path d="M821.62,165.3l7.32,16.78c-12.47,10.8-40.32,11.48-54.79,7.62-19.31-5.16-30.63-23.11-30.05-42.56.39-13.11,4.45-24.77,14.43-33.62,7.28-6.46,16.44-9.64,26.27-10.22,9.46-.56,18.87.19,27.35,4.33,18.98,9.28,22.34,29.03,20.29,48.04l-27.9.19-34.38-.2c3.23,22.56,36.6,18.62,51.46,9.65ZM807.59,139.33c-.44-5.35-.96-10.78-4.98-14.33-7.52-6.63-19.85-5.93-27.03.86-3.8,3.6-4.91,8.63-5.56,13.5l37.57-.04Z" fill="#a1a1a1"/>
    <path d="M505.63,188.02c-9.28,3.84-22.48,4.22-32.5,3.18s-18.87-7.54-21.37-17.98c-.49-2.04-1.41-5.07-1.42-7.28l-.17-43.1-12.37-.16.36-18.98,11.97-.04.28-21.16,27.63-.04.14,21.11,21.22.19.06,18.83-21.23.08.05,38.33c0,4.72,3.21,8.44,7.53,8.9,5.69.6,10.53-.33,16.18-2.56,1.69,6.91,2.72,13.3,3.65,20.69Z" fill="#a1a1a1"/>
    <path d="M279.19,173l2.39,15.14c-14.02,4.8-30.11,6.76-43.14-1.01-6.48-3.86-10.12-15.72-10.14-21.93l-.16-42.41-12.85-.29-.06-18.63,12.97-.16-.09-21.24,26.75.05.13,21.24,23.44.04-.03,18.84h-23.46s.02,37.88.02,37.88c0,5.71,4.11,9.75,9.87,10.15,4.31.3,8.51-.93,12.78-2.33.51,1.3,1.39,3.41,1.58,4.66Z" fill="#ea0005"/>
    <path d="M181.86,130.75c-6-7.94-18.15-7.85-24.31-.07-1.36,1.73-1.7,4.81-2.03,7.05l.06,52.75-29-.06v-86.62s25.88-.02,25.88-.02l.7,12.35c11.08-16.69,36.56-17.35,50.28-4.13,5.23,5.05,9.31,13.33,9.34,21.03l.24,57.49-28.4-.08-.07-49.88c-.98-3.26-.67-7.13-2.69-9.82Z" fill="#ea0005"/>
    <rect x="706.31" y="76.03" width="28.55" height="114.68" fill="#a1a1a1"/>
    <path d="M871.65,190.66l-29.36.03v-87.01s28.95.01,28.95.01l.53,10.5c7.5-11.04,16.57-12.59,29.5-10.38l-.02,23.06c-7.43-1.51-14.7-1.22-20.93,2.57-5.84,3.54-7.8,10.05-8.66,16.59v44.6Z" fill="#a1a1a1"/>
    <path d="M959.09,190.46h-28.02s0-86.58,0-86.58l27.59-.15c-.24,4.05-.19,7.07.1,10.78,2.32-2.54,3.99-4.8,6.4-6.65,5.26-4.03,18.78-7.65,23.27-3.33l-.14,22.7-10.64.21c-10.78.21-17.95,9.85-18.56,20.35l.02,42.66Z" fill="#ea0005"/>
    <path d="M405.54,148.32v42.16s-27.39.04-27.39.04v-86.65s26.92-.14,26.92-.14c-.47,4.09-.48,7.06.13,11.1,5.87-10.14,18.46-14.21,28.52-10.85l-.1,23.56c-6.15-1.69-15.87-.23-19.61,3.35-7.47,7.16-6.18,6.21-8.48,17.41Z" fill="#ea0005"/>
    <rect x="59.76" y="132.91" width="87.15" height="28.22" transform="translate(-43.7 250.34) rotate(-89.99)" fill="#ea0005"/>
    <path d="M104.18,94.57c-5.26.23-9.32-.78-12.63-3.98-6.98-6.77-3.82-17.5.43-20.9,5.88-4.71,15.28-4.92,21.05-.39,4.97,3.9,5.99,10.35,4.22,16.01-1.58,5.04-6.92,9-13.07,9.26Z" fill="#ea0005"/>
  </g>
</svg>
