<?xml version="1.0" encoding="UTF-8"?><svg id="a" xmlns="http://www.w3.org/2000/svg" viewBox="0 0 1113.65 275.05"><path d="M242.07,193.64c-21.88,47.41-83.15,75.43-136.24,60.5l-10.25,13.62c17.27,5.83,34.78,8.16,52.49,7,46.56-3.33,96.35-35.48,112.81-80.89l-18.81-.23Z" fill="#a1a1a1"/><path d="M78.72,177.95l-41.18,55.27,18.53,23.56,28.5,7.15c5.13-6.01,9.24-11.81,13.83-17.97l28.58-35.62c-20.23-3.7-37.54-15.72-48.27-32.39Z" fill="#454545"/><path d="M140.21,211.56c-.61,0-1.22-.03-1.82-.05l-28.1,36.93c47.8,13.24,104.11-11.81,125.9-55.98l-40.88-6c-13.4,15.37-33.1,25.1-55.1,25.1ZM175.34,214.84c.92.12,1.81.34,2.68.65-.86-.3-1.75-.51-2.68-.65Z" fill="#a1a1a1"/><path d="M210.98,120.18l34.26-4.61c-3.83-49.87-54.27-95.13-113.21-93l18.34,43.54c29.46,4.1,53.31,25.75,60.61,54.06Z" fill="#a1a1a1"/><path d="M79.31,98.08l-19.79-46.02c-19.11,17.19-31.2,40.21-35.37,65.29-5.11,30.74,2.63,61.83,21.79,86.68l27.81-35.15c-4.24-9.26-6.63-19.55-6.63-30.4,0-14.94,4.49-28.83,12.19-40.4Z" fill="#a1a1a1"/><path d="M110.8,2.05l-28.96.97-21.5,19.6,28.54,63.84c12.54-12.37,29.53-20.24,48.35-20.99L110.8,2.05Z" fill="#454545"/><path d="M195.3,186.46c11.19-12.84,17.99-29.61,17.99-47.98,0-6.32-.8-12.45-2.31-18.3-7.3-28.31-31.15-49.96-60.61-54.06-3.32-.46-6.71-.72-10.16-.72-1,0-1.99.04-2.97.08-18.82.75-35.81,8.62-48.35,20.99-3.57,3.53-6.78,7.42-9.57,11.61-7.69,11.57-12.19,25.46-12.19,40.4,0,10.85,2.38,21.14,6.63,30.4,1.44,3.15,3.11,6.18,4.97,9.07,10.73,16.67,28.04,28.69,48.27,32.39,3.71.68,7.52,1.07,11.4,1.17.61.01,1.21.05,1.82.05,21.99,0,41.7-9.73,55.1-25.1Z" fill="#fff"/><path d="M271.25,125.47l-16.59-2.13c-6.2-63.41-61.33-110.65-124.98-107.25l-6.13-15.29c19.03-2.14,37.62.11,55.35,5.97,51.82,17.13,88.33,64.12,92.34,118.7Z" fill="#a1a1a1"/><path d="M41.79,209.14l-10.26,13.18C-3.63,180.87-9.85,121.24,15.22,73.1c8.58-16.48,20.29-30.94,35.01-42.35l6.23,15.22C9.47,87.28,2.14,159.71,41.79,209.14Z" fill="#a1a1a1"/><circle cx="42.82" cy="133.21" r="12.94" fill="#fff"/><path d="M140.11,184.8c-16.42,2.44-36.65.89-51.1-6.97v-23.92c12.56,8.49,26.1,15.47,41.57,13.55,5.2-.78,10.51-3.2,10.06-8.94-.18-2.25-1.74-4.28-4.06-5.4-4.76-2.29-9.77-3.52-14.98-4.76-10.03-2.39-25.8-6.29-31.09-16.02-5.93-10.92-2.51-24.4,7.2-31.96,11.66-9.07,30.08-8.31,44.14-6.56v19.56c-5.73-1.67-11.17-2.34-16.97-2.26-3.56.29-6.75.95-9.97,2.35-1.63,1.26-2.88,2.8-3.08,4.44-.24,1.97.26,4.27,1.97,5.39,2.76,1.8,5.88,3.07,9.09,3.88l14.15,3.58c6.69,1.69,13.05,4,18.79,7.72,6.85,4.44,10.03,11.61,9.88,19.64-.27,15.17-11.12,24.55-25.61,26.7Z"/><path d="M679.05,182.44l-28.34.28-.27-56.29c-.02-5.07-2.46-9.56-6.39-11.04-5.97-2.25-14.33,1.02-16.87,7.29l-.12,60.04-29.31-.1-.04-87.89,28.29-.12.72,10.48c9.92-15.85,39.27-19.02,49.57.86,8.88-11.6,20.92-15.22,33.82-13.26,12.18,1.85,21.02,12.08,20.99,27.05l-.11,62.91-28.45.05-.08-55.58c0-3.83-1.1-7.17-3.73-9.93-4.77-5-17.97-2.73-18.8,5.9-1.89,19.68-.09,37.95-.88,59.35h0Z" fill="#a1a1a1"/><path d="M876.97,114.98c-6.59-.82-12.27,2.12-16.78,7.32v60.38l-29.51-.09-.07-87.98,28.7.12.61,10.19c5.54-5.7,11.34-10.56,18.75-12.01,9.03-1.77,18.39-1.09,26.21,4.02,6.89,4.5,9.67,11.95,10.38,20.9l-.47,64.86-28.92-.03-.04-57.1c-1.03-5.63-3.54-9.93-8.86-10.59h0Z" fill="#a1a1a1"/><path d="M750.64,182.07c-8.92-4.21-13.41-13.47-13.31-23.99.29-30.19,35.69-30.5,54.11-31.23.12-3.1-.09-7.87-2.12-10.19-7.92-9.04-30.07-.35-40.89,4.3l-6.1-19.79c19.35-8.2,48.01-13.75,65.49-3.61,7.62,4.42,12.35,13.02,12.35,22.89l-.03,42.46c0,6.62.38,12.32,1.31,19.76l-28.38.03-.78-9.82c-8.9,12.77-28.42,15.44-41.65,9.2h0ZM791.22,158.88l-.05-15.87c-6.9-.44-23.01.21-24.65,10-.69,4.1-.43,9.77,3.02,11.76,7.1,4.1,16.74,1.45,21.68-5.89Z" fill="#a1a1a1"/><rect x="926.85" y="160.23" width="21.5" height="22.51" fill="#a1a1a1"/><polygon points="493.2 164.56 503.65 182.76 470.1 182.77 452.24 145.16 442.32 155.01 442.28 182.74 413.1 182.79 412.96 51.74 442.25 51.74 442.31 127.67 454.96 112.92 469.71 94.7 502.98 94.79 473.57 127.5 493.2 164.56" fill="#ea0005"/><path d="M271.7,92.21c12.19,0,23.59,2.95,30.3,10.98,3.97,4.76,6.32,12.11,6.35,18.95l.17,50.85c0,2.73.79,6.06,1.11,9.77l-28.43-.08-.72-8.82c-7.2,7.67-16.82,11.5-26.65,11.5-4.05,0-8.13-.65-12.09-1.95v.02c-9.48-3.11-15.31-11.51-16.34-21.6-2.42-23.76,17.92-32.6,35.01-33.78l18.39-1.28c2.16-10.64-3.78-13.96-12-13.96-10.77,0-25.44,5.71-30.82,8.13l-5.2-19.49c10.17-4.9,26.13-9.24,40.92-9.24M265.27,166.68c5.58,0,11.18-2.98,14.2-8.77l-.18-14.74c-7.97.14-22.94-.12-24.58,10.16-.54,3.38-.3,9.4,2.73,11.21,2.41,1.43,5.12,2.14,7.83,2.14M271.7,84.21c-17.39,0-34.78,5.4-44.39,10.03-3.46,1.67-5.25,5.56-4.26,9.27l5.2,19.49c.6,2.27,2.17,4.15,4.29,5.16.2.1.41.18.61.26-3.1,2.03-5.81,4.39-8.03,7.03-6.1,7.24-8.75,16.64-7.68,27.19,1.38,13.55,9.74,24.43,21.81,28.39.19.06.39.12.58.17,4.57,1.44,9.28,2.16,14,2.16,7.63,0,14.91-1.87,21.36-5.4,1.47,1.67,3.61,2.71,5.99,2.72l28.43.08s.02,0,.02,0c2.24,0,4.37-.94,5.89-2.58,1.52-1.65,2.28-3.87,2.08-6.1-.16-1.83-.41-3.52-.63-5.02-.23-1.59-.45-3.09-.45-4.07l-.17-50.88c-.04-8.95-3.11-17.93-8.21-24.05-7.57-9.07-20.17-13.86-36.44-13.86h0ZM262.62,158.2c-.15-.9-.22-2.33-.01-3.6.31-1.92,4.6-2.75,8.78-3.11l.05,4.17c-1.53,1.92-3.74,3.03-6.17,3.03-.92,0-1.82-.17-2.65-.49h0Z" fill="#fff"/><path d="M173.82,65.7l28.22.06.2,28.8,20.83.28.07,20.09-20.98.07v38.66c0,6.35,4.57,10.52,9.5,10.52.39,0,.78-.03,1.17-.08l10.29-1.38h0s.74,19.42.74,19.42c-5.24,1.89-12.42,3.26-19.74,3.26-15.35,0-31.32-6.02-31.39-25.87l-.16-44.49-13.22-.06.24-20.11,13.09-.23,1.13-28.94M173.82,57.7c-4.3,0-7.83,3.39-7.99,7.69l-.84,21.39-5.53.1c-4.33.08-7.81,3.58-7.86,7.9l-.24,20.11c-.03,2.13.8,4.19,2.3,5.71s3.53,2.38,5.67,2.39l5.28.02.13,36.55c.05,14.83,7.37,22.86,13.5,26.99,6.66,4.48,15.61,6.85,25.89,6.85,7.69,0,15.87-1.36,22.45-3.73,3.28-1.18,5.41-4.35,5.28-7.83l-.74-19.43c-.12-3.17-2.11-5.97-5.06-7.14-.95-.38-1.95-.56-2.93-.56-.48,0-.96.04-1.43.13l-9.93,1.33s-.07,0-.11,0c-.62,0-1.5-.78-1.5-2.53v-30.67l13.01-.04c2.12,0,4.15-.86,5.65-2.36,1.5-1.51,2.33-3.54,2.32-5.67l-.07-20.09c-.02-4.37-3.53-7.91-7.89-7.97l-12.99-.17-.15-20.96c-.03-4.39-3.59-7.94-7.98-7.94l-28.22-.06s-.01,0-.02,0h0Z" fill="#fff"/><path d="M589.81,147.08c-3.72,35.53-39.47,43.01-63.6,35.85-9.29-2.76-17.82-8.53-23.47-18.25-8.44-14.52-8.74-35.49-1.2-50.82,4.14-8.42,11.27-13.91,19.08-17.2,21.12-8.89,56.79-6.3,66.79,22.17,3.16,9,3.42,18.68,2.41,28.25h0ZM557.33,154.87c4.23-11.33,5.28-39-10.47-42.17-6.96-1.4-15.12,1.39-17.89,9.86-3.49,10.7-3.23,23.65.98,34,2.62,6.45,9,8.48,14.26,8.16s10.58-3.03,13.13-9.85h-.01Z" fill="#ea0005"/><path d="M365.69,115.25c-6.48-1.53-14.15,1.35-17.56,7.83l-.18,59.67-29.62.03v-88.08h28.44l.78,10.61c9.68-11.66,22.75-15.38,36.63-11.89,10.11,2.55,18.91,11.58,18.98,25.08l.33,64.24-29.31.04-.1-54.55c-.01-6.09-2.79-11.65-8.38-12.97h-.01Z" fill="#ea0005"/><path d="M241.73,183.43c-9.48-3.11-15.31-11.51-16.34-21.6-2.42-23.76,17.92-32.6,35.01-33.78l18.39-1.28c5-24.59-33.33-10.09-42.82-5.83l-5.2-19.49c18.55-8.93,56.38-16.03,71.22,1.74,3.97,4.76,6.32,12.11,6.35,18.95l.17,50.85c0,2.73.79,6.06,1.11,9.77l-28.43-.08-.72-8.82c-10.17,10.82-25.15,14.01-38.74,9.55v.02ZM279.46,157.91l-.18-14.74c-7.97.14-22.94-.12-24.58,10.16-.54,3.38-.3,9.4,2.73,11.21,7.36,4.38,17.54,1.97,22.03-6.63Z" fill="#ea0005" stroke="#fff" stroke-miterlimit="10"/><path d="M223.13,162.71l.74,19.43c-16.23,5.85-51.03,6.71-51.13-22.61l-.16-44.49-13.22-.06.24-20.11,13.09-.23,1.13-28.94,28.22.06.2,28.8,20.83.28.07,20.09-20.98.07v38.66c.01,6.85,5.31,11.16,10.67,10.44l10.29-1.38h.01Z" fill="#ea0005" stroke="#fff" stroke-miterlimit="10"/><path d="M1113.63,92.8l.02,91.27-28.95.19-.33-11.43c-4.67,4.88-9.36,9.45-15.42,11.32-9.4,2.89-19.3,2.89-28.02-1.3-8.8-4.23-12.43-12.89-13.82-23.77l-.07-66.24,29.97-.06.09,59.53c.79,6.8,3.58,10.92,9.94,11.62,4.91.54,15.44-1.86,16.01-9.77,1.48-20.63.14-40.53.67-61.3l29.92-.07h-.01Z" fill="#ea0005"/><path d="M989.75,184.34l-29.81-.07-.11-89.34,28.16-.13.8,16.75c6.96-13.41,17.6-20.73,30.39-18.3l-.05,30.97c-5.67-.68-11.08-1.16-16.07,0-8.68,2.02-13.36,10.16-13.35,20.03l.04,40.09Z" fill="#ea0005"/></svg>