<?xml version="1.0" encoding="UTF-8"?>
<svg id="a" xmlns="http://www.w3.org/2000/svg" viewBox="0 0 486.04 512">
  <g>
    <path d="M239.85,138.26c17.27-.13,33.77,3.13,48.91,9.1l-.93-126.33L238.32,0l-47.09,21.74.93,125.91c14.76-5.92,30.83-9.27,47.69-9.39Z" fill="#414141"/>
    <path d="M370.49,285.49c-4.27,33.94-21.55,63.86-46.75,84.56l109.79,62.32,42.03-32.92,5.35-51.28-110.42-62.69Z" fill="#414141"/>
    <path d="M111.43,287.56L1.9,348.45l4.03,51.59,43.45,32.56,110.15-61.23c-25.53-20.3-43.28-49.94-48.1-83.8Z" fill="#414141"/>
  </g>
  <g>
    <path d="M334.17,392.95c-25.35,18.8-56.67,30.05-90.65,30.3-34.71.26-66.82-10.97-92.74-30.13l-81.79,45.47c44.56,45.71,106.95,73.91,175.82,73.4,67.13-.5,127.7-28.16,171.35-72.49l-82-46.55Z" fill="#a1a1a1"/>
    <path d="M302.69,33.35l.7,93.94c54.47,23.49,92.8,77.44,93.26,140.56.04,5.11-.19,10.16-.64,15.14l82.35,46.75c5.14-19.98,7.82-40.94,7.66-62.55-.84-112.99-78.66-207.4-183.34-233.83Z" fill="#a1a1a1"/>
    <path d="M177.25,129.14l-.7-93.96C73.98,64.28-.82,158.98,0,270.78c.15,19.91,2.7,39.24,7.36,57.73l81.44-45.27c-.4-4.32-.66-8.69-.69-13.11-.46-62.33,36.12-116.25,89.14-140.99Z" fill="#a1a1a1"/>
  </g>
  <circle cx="244.53" cy="473.31" r="23.48" fill="#414141"/>
  <circle cx="419.45" cy="175.78" r="23.48" fill="#414141"/>
  <path d="M241.41,152.07c-64.57,0-116.92,52.35-116.92,116.92s52.35,116.92,116.92,116.92,116.92-52.35,116.92-116.92-52.35-116.92-116.92-116.92ZM244.9,318.22c-27.19.2-49.4-21.68-49.6-48.87-.2-27.19,21.68-49.4,48.87-49.6s49.4,21.68,49.6,48.87c.2,27.19-21.68,49.4-48.87,49.6Z" fill="#ea0005"/>
  <circle cx="68.89" cy="178.37" r="23.48" fill="#414141"/>
</svg>