<?xml version="1.0" encoding="UTF-8"?><svg id="a" xmlns="http://www.w3.org/2000/svg" viewBox="0 0 591.18 616.16"><ellipse cx="296.25" cy="317.04" rx="292.06" ry="299.12" fill="#fff"/><path d="M464.06,504.86l-89.31-53.72c18.97-14.68,33.99-22.74,52.51-38.91,17.77-15.5,21.17-30.53,24.9-53.75l121.35,69.46-18.07,62.5-51.67,37.94-39.72-23.52Z" fill="#454545"/><path d="M215.7,451.21l-86.05,52c-14.32,8.65-27.35,16.95-42.62,24.87l-51.58-37.79-18.02-62.69,122.01-69.21,3.38,19.25c2.38,13.57,9.65,25.32,20.21,34.17,14.58,12.22,29.59,22.84,45.41,33.35,2.77,1.84,5.17,3.91,7.26,6.06Z" fill="#454545"/><path d="M266.28,406.28c-33.26,4.94-74.25,1.8-103.51-14.13l-.03-48.46c25.47,17.2,52.89,31.34,84.23,27.44,10.53-1.57,21.29-6.47,20.38-18.1-.36-4.57-3.52-8.68-8.22-10.94-9.65-4.64-19.8-7.14-30.35-9.65-20.31-4.83-52.26-12.74-62.97-32.45-12.02-22.12-5.08-49.44,14.59-64.74,23.62-18.37,60.94-16.82,89.42-13.29v39.62c-11.62-3.39-22.63-4.73-34.38-4.57-7.21.59-13.67,1.92-20.2,4.76-3.29,2.56-5.84,5.68-6.25,8.99-.49,3.98.53,8.65,3.98,10.91,5.59,3.65,11.91,6.21,18.42,7.85l28.67,7.24c13.55,3.42,26.43,8.1,38.06,15.64,13.88,9,20.31,23.52,20.02,39.79-.55,30.72-22.54,49.72-51.89,54.08Z"/><path d="M384.79,394.1l.17-106.13-28.04,51.93-30.6-53.16-.98-2.07c-.14-.31-.96-.43-.87-.12.09.33.94,2.24.94,2.73l-.09,31.95c-5.35-4.82-8.98-10.87-14.89-13.83l-19.71-9.9-1.56-72.99,38.75,1,27.71,55.17,25.4-53.74,39.78,11.26,1.81,155.09-37.77,25.69c-.51-8.09-.07-14.94-.05-22.88Z" fill="#ea0005"/><path d="M439.6,518.1c-86.36,66.04-202.57,65.75-288.05-.15l88.19-50.64c13.31,5.16,26.23,9.56,40.7,11.08,24.3,2.36,47.56-1.45,70.36-11.33l88.8,51.03ZM325.11,529.26c0-16.35-13.25-29.6-29.6-29.6s-29.6,13.25-29.6,29.6,13.25,29.6,29.6,29.6,29.6-13.25,29.6-29.6Z" fill="#a1a1a1"/><path d="M453.05,525.79l32,18.94c-76.12,67.02-182.36,88.73-278.93,57.26-36.66-12.21-70.03-31.24-100.05-57.17l31.83-19.05c94.73,73.65,218.67,75.14,315.15.02Z" fill="#a1a1a1"/><path d="M455.67,304.59c-.44-19.81-4.88-38.06-13.59-55.07-5.62-10.61-12.66-19.46-21.6-27.39-12.17-12.19-24.92-22.62-40.06-30.88l.22-110.68c120.53,44.04,186.41,172.92,151.97,296.57l-76.5-46.39-.45-26.15ZM498.59,209.06c0-16.34-13.25-29.59-29.59-29.59s-29.59,13.25-29.59,29.59,13.25,29.59,29.59,29.59,29.59-13.25,29.59-29.59Z" fill="#a1a1a1"/><path d="M142.09,266.51c-3.9,12.85-6.29,25.61-6.36,38.7l-.14,25.27-77.29,45.16c-18.23-65.8-8.31-134.81,27.19-192.57,28.96-47.12,72.21-83.59,124.83-102.57l-.04,111.38-15.78,9.17c-9.65,7.96-18.28,16.21-27.09,25.08-11.46,11.55-20.41,24.16-25.32,40.37ZM152.33,209.03c0-16.34-13.24-29.58-29.58-29.58s-29.58,13.24-29.58,29.58,13.24,29.58,29.58,29.58,29.58-13.24,29.58-29.58Z" fill="#a1a1a1"/><path d="M354.67,178.65c-39.14-15.66-79.67-15.52-118.65,1.05l.12-157.83L295.53,0l59.16,21.8-.03,156.84Z" fill="#454545"/><path d="M576.81,402.14l-31.68-17.91c39.51-132.89-32.83-273.32-163.9-318.67l.19-35.83c40.11,11.3,75.73,31.09,106.66,57.44,90.39,77.04,125.43,201.68,88.73,314.97Z" fill="#a1a1a1"/><path d="M45.72,382.55l-31.49,18.14c-36.85-112.38-.49-237.65,89.55-314.11,30.81-26.17,66.26-45.71,105.31-56.64l.08,35.78C80.56,110.46,6.36,250.4,45.72,382.55Z" fill="#a1a1a1"/></svg>
