<?xml version="1.0" encoding="UTF-8"?><svg id="a" xmlns="http://www.w3.org/2000/svg" viewBox="0 0 144 191.93"><path d="M134.33,190.8l-62.33-33.59-62.51,33.68c-2.09,1.13-3.82,1.4-5.99.46C1.89,190.66,0,188.87,0,186.34L.13,22.5C.14,10.12,11.41.05,23.47.05L120,0c12.91,0,23.92,10.38,23.93,23.54l.06,162.81c0,2.3-1.78,4.12-3.12,4.81-2.31,1.18-4.09.97-6.55-.36ZM74.94,144.78l57.06,29.93V24.06c0-7.12-5.66-12.21-12.55-12.09H23.52c-5.82.44-11.47,4.76-11.47,11.07l-.04,151.66,57.59-30.21c1.84-.65,3.33-.62,5.34.28Z" fill="#454545"/><path d="M101.27,71.26c-3.61,13.75-17.63,25.12-29.29,32.96-11.5-7.66-26.5-19.88-29.45-33.82-2.54-10.3,3.72-19.99,14.02-22.02,5.67-1.12,11.19.29,15.37,4.51,4.32-4.13,9.79-5.67,15.54-4.5,10.64,2.18,16.69,12.3,13.81,22.87Z" fill="#ea0005"/></svg>
