<svg
    id="a"
    xmlns="http://www.w3.org/2000/svg"
    viewBox="0 0 158.54 155.93"
    aria-hidden="true"
>
    <path
        class="icon-base"
        d="M146.84,124.23c-2.93,13.39-7.37,26.55-22.27,29.98-7.06,1.63-14.33,1.72-21.84,1.72l-49.44-.03c-22.79-.01-34.75-3.15-40.49-27.26l-2.89-12.14-4.09-18.96c-2.13-9.88-4.02-19.48-5.41-29.53-.88-6.37-.4-12.54,1.42-18.47,5.68-13.85,19.54-16.83,33.44-17.07L50.2,2.79c1.46-2.9,5.21-3.38,7.8-2.14s4.25,4.67,2.81,7.57l-11.82,23.78h60.55s-11.52-23.11-11.52-23.11c-1.45-2.9-.72-6.18,1.95-7.93,2.21-1.45,6.67-1.45,8.17,1.55l14.99,29.79,9.13.82c9.26.84,19.54,5.6,23.6,14.67,2.87,6.43,3.13,13.65,2.18,20.72-1.33,9.91-3.23,19.29-5.37,29.06l-5.83,26.68ZM146.28,63.98c.23-2.72.05-4.51-.17-6.62-.91-8.77-8.08-11.43-16.55-12.47l3.39,7.16c1.31,2.77-.73,6.2-2.94,7.25-2.59,1.22-6.21.92-7.61-1.85l-6.69-13.21-14.65-.2h-43.14s-15.12.2-15.12.2l-5.66,11.67c-1.55,3.2-4.32,4.95-8.02,3.7-2.42-.82-4.94-4.54-3.51-7.57l3.37-7.12c-4.65.48-8.38,1.51-11.85,3.84-4.18,2.81-5.67,10.39-4.84,15.21h134.01ZM125.21,141.11c2.94-1.32,4.45-3.74,5.71-6.6.49-1.12,1.46-2.56,1.8-3.78,2.07-7.33,3.6-14.42,5.17-21.86l4.52-21.39c.82-3.9,1.56-7.65,2.14-11.51H13.81s6.74,32.48,6.74,32.48c1.61,7.74,3.31,15.06,5.33,22.64l2.02,4.18c1.27,2.63,3.01,4.83,5.78,5.95,1.62.66,3.48,1.58,5.23,1.8,5.42.69,10.52.9,16.01.9h46.22c7.99,0,17.27.23,24.08-2.83Z"
        fill="currentColor"
    />
    <path
        class="icon-accent"
        d="M96.1,88.01c3.15,0,5.04,3.41,5.14,5.73.11,2.55-1.82,6.13-4.97,6.15l-32.5.12c-3.63.01-6.34-2.33-6.5-5.81-.14-3.15,2.36-6.23,5.99-6.23l32.84.03Z"
        fill="currentColor"
    />
</svg>
