<svg
    id="a"
    xmlns="http://www.w3.org/2000/svg"
    viewBox="0 0 167.99 167.98"
    class="size-6 text-white"
    aria-hidden="true"
>
    <polyline
        class="icon-accent"
        points="56.12 71.4 35.1 92.6 43.46 101.17 73.5 71.16 43.47 41.17 35.05 49.65"
        fill="currentColor"
    />
    <path
        class="icon-base"
        d="M167.98,36.11c0-7.18-5.65-12.1-12.52-12.1l-59.44.03-.06-12C95.92,5.01,90.4-.01,83.45,0L11,.14C5.37.15.05,5.39.05,11.05L0,131.98c0,6.43,4.94,12,11.52,12l60.48.05-.04,11.57c-.02,6.4,4.64,12.39,11.58,12.38l73.21-.06c6.58,0,11.24-5.89,11.24-11.94V36.11ZM155.99,36.03v54.03s-36.75-.1-36.75-.1l15.18-15.45-8.45-8.45-29.95,29.86-.05-59.9h60.02ZM11.99,66.05V12.03s72.01,0,72.01,0v119.99H12s0-54.02,0-54.02M84.01,156.03l-.02-11.95c6.73-.28,11.96-5.31,11.98-12.04l.07-35.9,29.94,29.87,8.43-8.44-15.3-15.49,36.88-.07v54.03s-71.98,0-71.98,0Z"
        fill="currentColor"
    />
</svg>
