<svg xmlns="http://www.w3.org/2000/svg" viewBox="0 0 192 192" aria-hidden="true">
    <path
        class="icon-base"
        fill="currentColor"
        d="M35.99,191.99c-6.69,0-13.01-2.59-17.8-7.29C13.4,179.9,10.75,173.58,10.73,166.91L10.15,36.58c-.03-7.04,2.68-13.72,7.62-18.79C22.71,12.73,29.36,9.92,36.49,9.9l64.99-.23,80.45,79.08,.07,78.6c.01,6.53-2.41,12.75-6.82,17.5-4.86,5.23-11.8,8.27-19.06,8.32l-120.13-1.18Zm65.97-167.28l-65.43,.17c-2.94,0-5.68,1.17-7.72,3.28-2.04,2.12-3.14,4.88-3.12,7.75l.62,130.95c.01,2.74,1.1,5.34,3.06,7.3,1.95,1.92,4.56,2.98,7.34,2.99l119.27,1.08c2.95-.02,5.75-1.24,7.65-3.35,1.84-1.98,2.86-4.56,2.85-7.27l-.06-72.31L101.97,24.71Z"
    />
    <path
        class="icon-accent"
        fill="currentColor"
        d="M58.89,144.49l8.43-35.86,57.13-57.23c9.65-9.68,25.34-9.7,34.98-.04l5.72,5.72c9.64,9.66,9.63,25.38-.03,35.04l-57.13,57.23-35.67,8.5c-1.89,.45-3.76,.67-5.61,.67-2.79,0-5.54-.51-8.16-1.54Zm16.85-28.55l-3.29,14,14.05-3.35,55.04-55.14c3.81-3.81,10.03-3.81,13.84,.01l1.75,1.75c3.82,3.82,3.82,10.04,0,13.85l-55.04,55.14-.59,2.51,1.32-1.29,56.7-56.8c3.82-3.82,3.83-10.04,.02-13.87l-5.72-5.72c-3.81-3.82-10.03-3.82-13.84-.01l-56.7,56.8-.56,2.13,1.32-1.29,49.78-49.87,7.83,7.84-56.7,56.8Z"
    />
</svg>
