<svg id="a" data-name="Layer 1" xmlns="http://www.w3.org/2000/svg" viewBox="0 0 175.99 155.34"
    aria-hidden="true">
    <path class="icon-base"
        d="M56.88,106.08l-37.06,38.57h131.68s-38.27-38.54-38.27-38.54l7.53-7.47,20.48,20.35,18.74,18.7.05-72.52c3.85-1.15,7.06-2.6,10.66-4.54v84.22c-.01,5.31-4.34,10.48-9.89,10.48H9.89c-5.6,0-9.89-5.11-9.89-10.49V37.89c0-5.29,4.27-10.44,9.9-10.44l99.49-.06c.11,4.02.51,7.19,1.84,10.62l-93.34.09,66.44,66.36,44.23-43.86c2.91,1.98,6.27,3.63,10.61,4.56l-47.57,47.36c-4.1,3.49-9.63,3.58-13.88.35L10.76,46.29v92.02s38.41-39.75,38.41-39.75l7.7,7.53Z"
        fill="currentColor" />
    <circle class="icon-accent" cx="149.34" cy="26.65" r="26.65" fill="currentColor" />
</svg>
