<svg id="a" xmlns="http://www.w3.org/2000/svg" viewBox="0 0 175.97 155.32" aria-hidden="true">
    <path
        class="icon-base"
        d="M56.84,106.08l-37.19,38.63,132.16.03-38.52-38.57,7.45-7.56,39.22,39.12.06-72.52c3.85-1.15,6.96-2.58,10.66-4.56v83.99c0,5.33-4.2,10.69-9.91,10.69H9.9C4.13,155.32,0,150.03,0,144.61L.02,37.48c0-4.83,4.34-10,9.5-10.01l99.76-.12c.25,3.66.77,6.94,1.58,10.62l-93.09.06,66.59,66.44,44.03-43.71c3.44,1.84,6.74,3.29,10.53,4.63l-46.85,46.6c-4.48,4.46-11.27,4.16-15.59-.37L10.72,46.18l-.04,92.32,38.42-39.81,7.74,7.38Z"
        fill="currentColor"
    />
    <circle class="icon-accent" cx="149.33" cy="26.63" r="26.63" fill="currentColor" />
</svg>
