<svg id="a" xmlns="http://www.w3.org/2000/svg" viewBox="0 0 168.03 158.18" aria-hidden="true">
    <path
        class="icon-accent"
        d="M60.14,112.29l-.11,34.02h12v-32.46c-.17-1.99,1.28-3.38,3.19-3.54h17.64c1.7.16,3.08,1.34,3.18,3.08v32.93s12.01,0,12.01,0l-.06-33.51c-.01-7.94-6.68-14.17-14.58-14.49h-18.45c-7.56.1-14.78,6.04-14.81,13.98Z"
        fill="currentColor"
    />
    <path
        class="icon-base"
        d="M166.22,76L94.28,4.17c-5.56-5.55-14.96-5.56-20.52,0L1.59,76.26c-2.38,2.38-1.87,6.05.06,8.15,2.05,2.23,5.64,2.59,8.08.62l8.26-8.06.09,66.88c0,6.96,6.07,14.32,13.45,14.31l105.25-.06c8.15,0,13.25-8.26,13.26-15.25v-65.88s7.79,7.55,7.79,7.55c2.37,2.5,6.41,2.31,8.57-.1,2.1-2.34,2.31-5.95-.17-8.43ZM138.02,143.06c-.15,1.91-1.41,3.04-3.19,3.25h-26.8s-24.16,0-24.16,0h-11.85s0,0,0,0h-12s-26.82.01-26.82.01c-1.62-.19-2.77-1.15-3.18-2.87v-78.65S81.74,13.08,81.74,13.08c1.63-1.33,3.38-1.21,4.83.31l51.47,51.41v78.26Z"
        fill="currentColor"
    />
</svg>
