<svg id="a" xmlns="http://www.w3.org/2000/svg" viewBox="0 0 160.11 160.11" aria-hidden="true">
    <path
        class="icon-base"
        d="M160.11,80.06c0,44.21-35.84,80.06-80.06,80.06S0,124.27,0,80.06,35.84,0,80.06,0s80.06,35.84,80.06,80.06ZM143.98,80.05c0-35.31-28.63-63.94-63.94-63.94s-63.94,28.63-63.94,63.94,28.63,63.94,63.94,63.94,63.94-28.63,63.94-63.94Z"
        fill="currentColor"
    />
    <path
        class="icon-base"
        d="M88.14,111.3c.02,5.18-3.2,8.67-7.8,8.8-4.84.14-8.29-3.49-8.28-8.56l.09-39.94c0-4.06,3.25-7.22,6.83-7.56,4.51-.43,8.97,2.17,8.99,7.1l.17,40.16Z"
        fill="currentColor"
    />
    <path
        class="icon-accent"
        d="M88.15,54.98c-4.57,5.01-11.15,4.92-15.73.57-2.59-2.46-3.39-6.62-2.32-10.5.83-3.01,3.41-6.52,7.23-7.15,4.89-.8,9.71.43,11.86,4.93,1.81,3.79,1.84,8.99-1.04,12.14Z"
        fill="currentColor"
    />
</svg>
