<svg id="a" xmlns="http://www.w3.org/2000/svg" viewBox="0 0 160.11 112.01" aria-hidden="true">
    <path
        class="icon-base"
        d="M152.26.02c5.02,0,8.02,4.41,7.85,8.21-.2,4.29-3.21,7.77-8.13,7.77H7.66c-2.21,0-4.1-1.28-5.65-2.64C-.22,11.41-.54,7.28.79,4.59,2.19,1.75,5.01,0,8.68,0l143.58.02Z"
        fill="currentColor"
    />
    <path
        class="icon-base"
        d="M152.26,48.02c5.02,0,8.02,4.41,7.85,8.21-.2,4.29-3.21,7.77-8.13,7.77H7.66c-2.21,0-4.1-1.28-5.65-2.64-2.24-1.96-2.55-6.09-1.23-8.77,1.41-2.85,4.22-4.59,7.9-4.59l143.58.02Z"
        fill="currentColor"
    />
    <path
        class="icon-base"
        d="M104.29,96.03c4.97,0,8,4.4,7.82,8.2-.2,4.29-3.23,7.77-8.11,7.77H7.63c-2.14,0-4.09-1.29-5.62-2.63-2.24-1.97-2.55-6.08-1.23-8.78,1.39-2.83,4.25-4.6,7.87-4.59l95.63.03Z"
        fill="currentColor"
    />
</svg>
