<svg id="a" data-name="Layer 1" xmlns="http://www.w3.org/2000/svg" viewBox="0 0 160.21 143.83"
    aria-hidden="true">
    <path class="icon-base"
        d="M16.01,119.12c0,4.16,2.43,8.66,7.08,8.67l56.22.17c5.26.02,8.66-3.55,8.67-8.59l.04-15.41c.01-4.49,3.61-7.83,7.74-7.96,4.36-.13,8.24,3.33,8.22,7.94l-.06,17.17c-.04,11.79-10.21,22.73-22.39,22.72l-59.59-.06c-11.79-.01-21.84-11.05-21.85-22.76L0,25.55c0-4.25.37-8.32,2.21-11.93C6.5,5.21,14.33,0,24.04,0l56.93.02c11.83,0,22.95,10.56,22.98,22.93l.04,17.06c.01,4.49-3.64,7.83-7.75,7.95-4.39.13-8.22-3.3-8.23-7.94l-.03-15.89c0-4.07-3.28-8.12-7.72-8.1l-57.19.14c-4.56.01-7.09,4.61-7.08,8.37l.02,94.58Z"
        fill="currentColor" />
    <path class="icon-accent"
        d="M132.26,80.04l-76.74-.07c-2.07,0-4.09-1.29-5.57-2.6-2.38-2.12-2.44-5.84-1.14-8.81,1.09-2.51,3.83-4.56,7.24-4.56l76.3-.05c-3.81-4.17-6.85-7.14-10.41-10.61-3-2.92-2.42-8.27.51-11.08,3.26-3.13,8.17-2.99,11.49.33l23.51,23.48c2.6,2.6,4.07,7.64,1.14,10.58l-25.15,25.2c-3.13,3.14-8.03,2.66-10.94-.07-3.15-2.95-3.32-7.86-.4-11.2l10.16-10.54Z"
        fill="currentColor" />
</svg>
