<?xml version="1.0" encoding="UTF-8"?><svg id="a" xmlns="http://www.w3.org/2000/svg" viewBox="0 0 162.21 162.18"><defs><style>.b{fill:currentColor;}</style></defs><path class="b" d="M147.12,159.77l-36-35.85c-20.12,15.77-48.02,18.29-70.47,8.17C15.01,120.52-.92,94.88.04,66.53.78,44.99,11.69,25.24,29.14,12.63c3.52-2.54,7.11-4.65,10.94-6.36C66.57-5.56,96.95-.44,117.66,19.86c21.85,21.41,26.83,55.32,12.1,82.4-1.73,3.18-3.73,5.83-5.72,8.87l35.74,35.81c3.51,3.52,3.03,9.2-.11,12.42s-8.81,4.14-12.54.42ZM120.11,69.1c0-28.15-22.82-50.97-50.97-50.97s-50.97,22.82-50.97,50.97,22.82,50.97,50.97,50.97,50.97-22.82,50.97-50.97Z" fill="#fff"/></svg>
