<?xml version="1.0" encoding="UTF-8"?><svg id="a" xmlns="http://www.w3.org/2000/svg" viewBox="0 0 85.59 85.15"><path d="M84.16,31.74c-2.43-9.33-7.67-17.31-15.16-23.06C61.71,3.08,52.61,0,43.35,0c-3.23,0-6.5.37-9.7,1.1C15.78,5.15,2.4,19.71.38,37.32c-1.22,10.64.77,18.51,2.54,25.45,1.13,4.46,2.2,8.67,2.45,13.48.23,4.43,3.52,8.9,10.35,8.9,3.75,0,8.37-1.4,11.95-3.76,4.09,2.35,8.97,3.58,14.58,3.68.26,0,.51,0,.76,0,13.1,0,25.21-5.74,33.24-15.74,8.49-10.58,11.37-24.28,7.91-37.59ZM71.57,65.57c-6.74,8.4-17.18,13.5-28.56,13.5-.22,0-.44,0-.66,0-5.83-.1-11.15-1.66-15.18-5.46-1.41,2.8-7.28,5.54-11.46,5.54-2.4,0-4.23-.9-4.35-3.21-.7-13.38-6.86-21.93-5.02-37.92,1.78-15.51,13.62-27.65,28.64-31.06,2.82-.64,5.62-.95,8.37-.95,16.26,0,30.7,10.74,35,27.25,2.95,11.35.67,23.03-6.78,32.32Z" fill="#454545"/><path d="M45.27,24.2c-.88-.13-1.75-.19-2.61-.19-7.69,0-14.48,4.97-16.95,12.73-2.36,7.4-1.84,15.45.62,22.84.21.64.97,1.53,1.49,1.66.05.01.11.02.18.02.5,0,1.37-.32,1.7-.56l3.6-2.59c3.12,2.04,6.53,3.02,9.91,3.02,4.01,0,7.97-1.39,11.35-4.08,5.76-4.58,8.68-12.29,6.16-20.02-2.12-6.49-7.86-11.74-15.45-12.84ZM50.82,52.37c-2.28,1.82-4.91,2.78-7.61,2.78-2.28,0-4.57-.71-6.63-2.05l-3.44-2.24-2.43,1.75c-.9-4.93-.66-9.71.72-14.03,1.66-5.2,6.07-8.55,11.24-8.55.58,0,1.17.04,1.75.13,5.01.73,9.08,4.09,10.6,8.77,1.59,4.88-.05,10.17-4.19,13.46Z" fill="#f04548"/></svg>
