<?xml version="1.0" encoding="UTF-8"?><svg id="a" xmlns="http://www.w3.org/2000/svg" viewBox="0 0 159.93 112.51"><path d="M151.64,96.51c4.98,0,8.13,3.61,8.27,7.77s-3.2,8.23-8.02,8.23H7.53c-4.65-.01-7.62-4.41-7.51-8.21.13-4.66,3.68-7.8,8.55-7.8h143.08Z" fill="#454545"/><path d="M152.61,64.24l-144.07.05C3.62,64.29.01,60.88,0,56.25s3.58-8.02,8.54-8.02h143.35c4.58.01,7.76,3.46,8.02,7.59.23,3.6-2.55,8.42-7.3,8.42Z" fill="#454545"/><path d="M151.64,0c4.98,0,8.13,3.61,8.27,7.77s-3.2,8.23-8.02,8.23H7.53C2.88,15.99-.1,11.6.01,7.8.15,3.14,3.69,0,8.56,0h143.08Z" fill="#454545"/></svg>
