<?xml version="1.0" encoding="UTF-8"?>
<svg id="a" xmlns="http://www.w3.org/2000/svg" viewBox="0 0 168 192"
    aria-hidden="true">
    <path
        class="icon-base"
        d="M155.98,168.19l.03-114.18h-24.51c-9.67-.38-17.15-7.84-17.5-17.5V11.99s-67.26.16-67.26.16c-5.6.01-10.7,5.51-10.7,10.98l-.04,108.86h-12s0-109.94,0-109.94C25.17,9.59,35.06.41,47.55,0h66.46s53.98,53.98,53.98,53.98v113.43c.19,13.48-10.2,24.12-23.5,24.59h-12.51s0-11.99,0-11.99l12.92-.13c5.88-.06,11.06-5.27,11.06-11.69Z"
        fill="currentColor"/>
    <polygon
        class="icon-accent"
        points="113.85 163.48 113.99 171.12 94.79 171.18 94.73 190.23 85.27 190.23 85.25 142.28 115.77 142.23 115.84 149.97 94.74 150.04 94.78 163.51 113.85 163.48"
        fill="currentColor"/>
    <path
        class="icon-accent"
        d="M70.35,145.23c9.8,6.28,10.27,21.31,7.55,31.31-2.15,7.86-8.65,12.98-16.91,13.47-6.89.41-13.68.24-20.66.22v-47.97s17.68-.04,17.68-.04c4.38-.01,8.5,1.05,12.34,3.01ZM68.12,175.21c1.99-5.82,1.9-12.08.08-17.71-2.73-8.41-10.99-7.57-18.34-7.48v32.2s6.66.2,6.66.2c5.02.15,9.82-1.97,11.61-7.21Z"
        fill="currentColor"/>
    <path
        class="icon-accent"
        d="M21.73,173.89c-4.15.41-7.75.24-12.2.27l-.07,16.06-9.47.03v-48.02s19.99.04,19.99.04c9.11.02,15.74,7.22,15.35,16.23.09,8.03-5.22,14.56-13.6,15.38ZM25.75,157.73c-.17-4.66-3.19-7.94-7.77-7.94h-8.52s0,16.81,0,16.81l8.5-.04c4.95-.03,7.97-3.81,7.79-8.83Z"
        fill="currentColor"/>
</svg>
