<?xml version="1.0" encoding="UTF-8"?><svg id="a" xmlns="http://www.w3.org/2000/svg" viewBox="0 0 149.85 149.7"><path d="M95.5,86.3c3.48-2.94,8.37-2.93,12.21-1.2l35.17,15.87c4.93,2.22,7.63,7.32,6.81,12.77-2.88,19.15-18.67,34.85-38.59,35.85-37.33,1.87-72.94-17.33-93.5-48.43C5.57,82.92-.77,61.39.07,39.48.85,19.31,16.26,3.39,35.75.18c5.47-.9,10.84,1.58,13.18,6.8l15.95,35.55c1.62,4.15,1.3,8.81-1.62,12.29l-15.39,18.29c6.6,12.26,16.81,22.59,29.13,28.83l18.51-15.65ZM83.64,111.84c-3.78,3.17-9.02,2.48-12.94.34-13.85-7.56-25.16-18.59-32.78-32.35-2.73-4.56-2.75-9.75.36-14.02l15.61-18.55-15.82-35.29c-13.47,1.91-25.21,12.85-25.91,26.97-1.4,28.32,10.57,55.31,31.49,74.23,18.12,16.39,42.13,25.64,66.67,24.5,14.37-.67,25.61-12.31,27.54-25.94l-35.29-15.81-18.93,15.91Z" fill="#454545"/><path d="M143.37,51.24c1.11,3.87-.03,7.17-3.71,8.36-3.16,1.02-6.68-.77-7.65-4.38-4.92-18.33-19.04-32.49-37.4-37.43-3.48-.94-5.32-4.14-4.5-7.36.89-3.5,4.34-5.12,7.87-4.14,21.98,6.07,39.06,22.86,45.39,44.96Z" fill="#ea0005"/><path d="M107.93,61.02c-2.57-9.59-9.47-16.71-19-19.06-3.7-.91-5.84-4.44-4.71-7.89,1.22-3.72,4.94-4.63,8.49-3.57,13.16,3.93,23,13.75,26.73,26.99.99,3.52-.12,6.95-3.77,8.11-3.21,1.02-6.7-.7-7.74-4.59Z" fill="#ea0005"/></svg>
