<?xml version="1.0" encoding="UTF-8"?>
<svg id="a" xmlns="http://www.w3.org/2000/svg" viewBox="0 0 192 167.9" class="size-6 text-white"
    aria-hidden="true">
    <path
        class="icon-base"
        d="M132.73,167.84l-73.22.05c-13.19,0-23.47-10.99-23.51-23.84l-.03-12.11-11.51.06C11.02,132.08-.04,121.58,0,107.97l.12-37.53c.04-12.46,11.1-22.34,23.25-22.41l12.6-.07.13-25.56C36.17,10.13,47.06.06,59.47.05L131.96,0c13.11,0,23.88,10.4,23.93,23.45l.09,24.5,12.05.05c12.95.05,23.82,10.35,23.86,23.46l.11,36.01c.04,13.77-10.77,24.56-24.53,24.52l-11.51-.04.03,11.62c.04,12.67-9.77,24.26-23.27,24.27ZM143.98,47.97v-24c-.2-6.93-5.54-12.17-12.55-12H59.49c-5.95.4-11.38,4.84-11.41,10.99l-.11,25.02h96ZM132.26,84.04c13.21,0,23.56,10.71,23.65,23.37l.09,12.55,11.51.03c6.77.02,12.47-5.02,12.46-12.04l-.02-35.96c0-7.11-5.59-12.05-12.55-12.05l-143.86.04c-5.98,0-11.44,5.12-11.45,10.92l-.05,37.58c0,6.45,5.65,11.43,11.88,11.45l12.06.04c.07-4.85-.21-9.2.13-14.08.84-12.05,11.07-21.86,23.38-21.86h72.78ZM133.18,155.98c6.37-1.05,10.78-5.76,10.78-12.01l-.02-35.97c0-7.08-5.62-12.06-12.51-12.05l-71.96.06c-5.9,0-11.39,5.09-11.41,10.9l-.09,37.1c-.01,6.26,4.93,11.92,11.52,11.93l73.67.04Z"
        fill="currentColor" />
    <circle class="icon-accent" cx="29.97" cy="77.97" r="5.98" fill="currentColor" />
</svg>
