<svg id="a" xmlns="http://www.w3.org/2000/svg" viewBox="0 0 192.2 192.22" aria-hidden="true">
    <path
        class="icon-base"
        d="M104.26,191.74c-5.57.68-10.8.59-16.12.01-4.39-.48-7.99-4.85-9.1-9l-4.8-18.04c-4.33-1.4-7.73-2.89-11.66-4.82l-13.91,8.74c-5.27,3.31-12.64,4.18-17.45-.67-3.17-3.2-6.4-6.09-9.34-9.65s-2.59-9.39-.25-13.35l9.91-16.85-3.96-9.59-18.27-4.8c-4.13-1.09-8.47-4.82-8.9-9.14-.54-5.38-.58-10.56-.02-15.93.49-4.71,5.03-8.96,9.53-10.04l17.4-4.18c1.35-3.6,2.55-6.54,4.26-10.17l-9.02-15.17c-3.05-5.13-4.19-12.04.38-16.61l8.27-8.26c4.72-4.72,12.16-4.02,17.15-.84l14.12,9c4.05-1.96,7.49-3.43,11.7-4.97l4.78-18.11c1.09-4.14,4.85-8.43,9.15-8.88,5.38-.56,10.58-.6,15.95,0,5.01.56,9.16,5.45,10.27,10.22l3.89,16.83,11.05,4.63,13.64-8.66c5.21-3.31,12.61-3.96,17.41.94,3.14,3.2,6.49,6.09,9.3,9.68s2.27,9.51-.06,13.51l-9.26,15.87,4.53,10.97,17.06,4.06c4.84,1.15,9.43,5.53,9.91,10.58s.55,10.29-.04,15.5c-.51,4.52-5.06,8.16-9.36,9.28l-17.8,4.66-4.32,10.26,8.8,14.77c2.76,4.64,3.75,11.7-.53,16.01l-8.21,8.28c-4.79,4.83-12.2,4.22-17.39.93l-13.71-8.7-10.83,4.53-4.11,17.43c-1.05,4.47-5.14,9.12-10.04,9.72ZM103,178.09l5.17-23.04c8.06-2.04,14.64-5.02,21.55-8.83l21.5,13.65,8.51-8.41-13.21-22.28c3.6-6.67,6.43-12.96,8.5-20.59l24.99-6.47.23-10.2c.02-.71-1.1-1.95-1.94-2.14l-23-5.11c-2.01-7.93-4.97-14.62-8.83-21.63l12.44-20.74c.53-.88.14-2.34-.48-2.92l-7.32-6.85-21.39,13.46c-7.05-3.97-14.05-6.96-21.68-9.1l-5.61-24.8-11.89.06-6.34,24.8c-7.98,2.35-14.98,5.17-22.14,9.29l-21.91-13.82-8.46,8.34,13.62,22.91c-3.65,6.78-6.49,13.3-8.4,20.97l-24.72,5.59-.11,11.34c.75.48,2.04,1.16,2.85,1.36l22.19,5.58c2.05,7.18,4.7,13.48,8.2,20.03l-13.62,22.76,7.43,7.47c.44.45,2.08.37,2.65,0l20.33-12.85c7.21,4.25,14.31,7.22,22.22,9.36l6.26,24.73,10.17.14c.94.01,1.97-.8,2.26-2.07Z"
        fill="currentColor" />
    <path
        class="icon-accent"
        d="M132.23,96.13c0,19.92-16.15,36.07-36.07,36.07s-36.07-16.15-36.07-36.07,16.15-36.07,36.07-36.07,36.07,16.15,36.07,36.07ZM120.04,96.1c0-13.24-10.73-23.97-23.97-23.97s-23.97,10.73-23.97,23.97,10.73,23.97,23.97,23.97,23.97-10.73,23.97-23.97Z"
        fill="currentColor" />
</svg>
