<svg id="a" xmlns="http://www.w3.org/2000/svg" viewBox="0 0 159.91 191.88" aria-hidden="true">
    <path
        class="icon-base"
        d="M85.38,189.97c-3.13,2.25-7.01,2.64-10.08.5-21.41-14.96-42.92-35.44-57.46-57.32-6.26-9.41-11.13-19.18-14.39-29.95-8.9-29.38-.22-61.03,21.86-81.67S80.29-5.7,108.99,5.43c38.96,15.12,59.61,57.78,47.44,97.87-10.49,34.55-42,65.78-71.04,86.67ZM130.96,120.88c3.78-6.27,6.75-12.51,9.16-19.24,12.46-34.8-6.97-73.05-42.46-83.14-23.39-6.65-48.23.31-64.56,17.92-16.54,17.84-21.49,43.18-12.97,66.27,10.5,28.42,35.9,53.28,59.81,71.48,19.66-14.95,37.95-32.45,51.01-53.29Z"
        fill="currentColor"
    />
    <path
        class="icon-accent"
        d="M111.98,79.95c0,17.69-14.34,32.03-32.03,32.03s-32.03-14.34-32.03-32.03,14.34-32.03,32.03-32.03,32.03,14.34,32.03,32.03ZM95.94,79.97c0-8.83-7.16-15.99-15.99-15.99s-15.99,7.16-15.99,15.99,7.16,15.99,15.99,15.99,15.99-7.16,15.99-15.99Z"
        fill="currentColor"
    />
</svg>
