<?xml version="1.0" encoding="UTF-8"?><svg id="a" xmlns="http://www.w3.org/2000/svg" viewBox="0 0 567.06 514.08"><path d="M381.99,213.08c7.61-7.95,5.81-20.02-.39-26.82-6.67-7.31-19.72-9.49-27.53-1.36l-101.44,105.63,29.03,27.31,100.33-104.76Z" fill="#f04548"/><path d="M564.6,40.04C559.25,16.5,540.4.44,516.05.02c-14.08-.24-27.8,2.46-41.26,6.83-27.62,8.99-53.06,19.5-80.33,30.33L83.45,160.75c-17.85,7.09-33.69,13.99-50.68,22.19-10.31,4.98-19.84,12.91-26.15,22.49-11.69,17.73-7.32,40.88,8.64,54.63,8.65,7.45,18.53,13.55,29.25,18.15l78.22,33.62c9.77,4.2,16.13,12.06,18.84,21.98l17.33,63.36c8.3,30.34,13.82,79.62,54.45,68.62,9.59-5.28,16.93-11.87,23.03-20.25l48.5-66.61,87.46,99.25c10.43,11.04,20.13,21.55,32.84,29.29,21.73,13.24,47.61,6.11,59.4-16.65,6.89-13.29,11.22-27.28,14.94-42.75l72.09-299.69c5.31-22.09,9.49-42.34,13.48-64.4,2.65-14.67,2.72-29.67-.51-43.92ZM516.66,123.67l-74.17,309.27c-3.65,15.24-7.12,27.93-14.83,42.64-15.34-12.75-26.06-24.39-37.98-37.94l-79.42-90.24-28.04-30.15-29.6-26.71c-9.67,10.07-14.06,22.58-10.54,35.13,2.44,8.71,8.6,15.76,15.59,22.73l-51.62,70.53-25.08-92.54c-6.7-24.72-21.97-42.53-45.55-52.9l-63.59-26.61c-11.88-4.97-21.89-10.23-33.12-17.9,3.59-10.83,61.09-32.16,74.62-37.53L445.74,59.47c19.45-7.72,37.35-13.79,57.37-19.17,5.67-1.52,15.29-1.52,19.52,2.46,11.48,10.79-1.89,63.87-5.98,80.92Z" fill="#454545"/></svg>
