<?xml version="1.0" encoding="UTF-8"?>
<svg id="Layer_1" data-name="Layer 1" xmlns="http://www.w3.org/2000/svg" viewBox="0 0 155.97 180" aria-hidden="true">
    <path
        class="icon-base"
        d="M132,174.22c-.3,3.6-2.8,5.78-6.06,5.78H30.05c-3.23,0-5.77-2.29-6.04-5.54L12.47,36.07l-5.99-.04c-3.6-.02-6.33-2.31-6.47-5.81-.13-3.15,2.33-6.21,6.01-6.21l43.27-.03,4.9-19.4c.7-2.76,3.02-4.33,5.83-4.58h35.97c3.05.23,5.22,2.06,5.95,4.95l4.78,19.04,43.28.03c3.29,0,5.63,2.46,5.96,5.27s-1.61,6.47-4.91,6.56l-7.51.21-11.52,138.16ZM94.27,23.98l-3.03-12-26.57.03-2.94,11.99,32.54-.03ZM120.47,168l10.99-131.96H24.53s10.99,131.96,10.99,131.96h84.95Z"
        fill="currentColor"
    />
    <path
        class="icon-accent"
        d="M59.95,137.2c.33,3.99-2.56,6.7-5.64,6.74-3.5.05-6.04-2.17-6.35-5.87l-5.94-71.51c-.29-3.49,2.31-6.21,5.21-6.48,3.28-.3,6.45,1.78,6.75,5.41l5.97,71.7Z"
        fill="currentColor"
    />
    <path
        class="icon-accent"
        d="M108.04,137.86c-.33,3.98-2.83,6.1-6.38,6.09-3.02-.01-5.95-2.82-5.64-6.51l6.04-72.38c.28-3.4,3.84-5.3,6.64-4.95,2.98.38,5.55,2.99,5.26,6.45l-5.92,71.31Z"
        fill="currentColor"
    />
    <path
        class="icon-accent"
        d="M84,137.72c0,3.85-2.7,6.13-5.77,6.26-3.28.14-6.23-2.31-6.23-6.02l-.02-71.42c0-3.7,2.29-6.35,5.79-6.5,3.18-.13,6.22,2.28,6.22,5.99v71.68Z"
        fill="currentColor"
    />
</svg>
