<?xml version="1.0" encoding="UTF-8"?><svg id="a" xmlns="http://www.w3.org/2000/svg" viewBox="0 0 156.03 156.03"><path d="M156.03,78.01c0,43.09-34.93,78.01-78.01,78.01S0,121.1,0,78.01,34.93,0,78.01,0s78.01,34.93,78.01,78.01ZM126.37,122.98c18.46-20.24,22.57-47.88,11.75-72.2-9.76-21.95-32.11-37.74-57.19-38.6-1.96-.07-3.88-.08-5.82,0-25.24.89-47.66,16.82-57.37,38.95-10.71,24.43-6.28,52.08,11.94,71.87,26.45-27.87,70.19-27.86,96.68,0ZM117.03,131.19c-5.74-6.81-12.41-10.58-19.79-13.54-20.35-7.77-43.46-2.54-58.49,13.43,23.2,17.26,55.23,17.24,78.27.12Z" fill="#454545"/><path d="M108.07,60.05c0,16.6-13.46,30.05-30.05,30.05s-30.05-13.46-30.05-30.05,13.46-30.05,30.05-30.05,30.05,13.46,30.05,30.05ZM95.97,60.06c0-9.92-8.04-17.96-17.96-17.96s-17.96,8.04-17.96,17.96,8.04,17.96,17.96,17.96,17.96-8.04,17.96-17.96Z" fill="#ea0005"/></svg>
