<svg xmlns="http://www.w3.org/2000/svg" viewBox="0 0 112.39 112.03" aria-hidden="true">
    <path
        class="icon-base"
        d="M97.99,109.28l-41.87-41.88L13.58,109.87c-3.15,3.14-7.77,2.57-10.93.1-1.9-1.49-2.56-3.47-2.58-6,.02-1.84.48-3.72,1.94-5.19l42.72-42.77L2.14,13.42C-.98,10.3-.55,5.11,2.56,2.27s7.96-3.17,11.27.14l42.28,42.22L98.64,2.18c3.05-3.05,7.4-2.67,10.58-.31,2.36,1.76,4.78,7.3,1.73,10.37l-43.44,43.78,42.02,42.04c3.21,3.21,3.6,8.29.45,11.46-3.33,3.33-8.36,3.39-11.99-.24Z"
        fill="currentColor"
    />
</svg>
